<svg width="30" height="24" viewBox="0 0 30 24" fill="none" xmlns="http://www.w3.org/2000/svg">
<path d="M15.6414 13.497C15.6949 12.5109 16.188 11.6402 16.9248 11.0253C17.7031 10.3912 18.6832 10.0473 19.6932 10.054C20.7535 10.054 21.7294 10.4242 22.4569 11.0253C23.1947 11.6411 23.6822 12.5109 23.7403 13.497C23.7937 14.5062 23.384 15.4499 22.6566 16.146C21.8591 16.8963 20.796 17.3107 19.6932 17.3011C18.5873 17.3113 17.5207 16.897 16.7195 16.146C15.9967 15.4489 15.5824 14.5062 15.6405 13.497H15.6414ZM9.19162 15.4877C9.19537 15.8727 9.32287 16.6225 9.50755 17.2088C9.91216 18.4687 10.5922 19.626 11.4997 20.5992C12.4717 21.6526 13.6576 22.4932 14.9805 23.0663C16.4223 23.6905 17.9814 24.0085 19.5563 23.9998C21.1319 24.0046 22.6907 23.6821 24.1312 23.0534C25.4531 22.4738 26.6384 21.6303 27.612 20.5761C28.516 19.5972 29.194 18.4371 29.5995 17.1755C29.9901 15.9529 30.0968 14.6595 29.9117 13.3908C29.7371 12.1758 29.3043 11.0108 28.6414 9.97178C28.0305 9.00255 27.2463 8.1504 26.3268 7.45664L16.9333 0.34798C16.3183 -0.118299 15.2833 -0.113682 14.6093 0.34798C13.9259 0.819798 13.8471 1.59908 14.4518 2.09398L18.3592 5.22497L6.43076 5.23975C5.4436 5.23975 4.50238 5.87407 4.31114 6.6829C4.12083 7.50004 4.78456 8.17868 5.81016 8.18238L11.8503 8.17407L1.03091 16.3482C0.015631 17.1128 -0.311547 18.3916 0.328747 19.1958C0.977479 20.0185 2.36025 20.0185 3.3896 19.2004L9.2685 14.4628C9.2685 14.4628 9.18131 15.1027 9.19069 15.4868L9.19162 15.4877ZM24.3018 17.627C23.0869 18.8449 21.3919 19.5365 19.5573 19.5365C17.7208 19.5411 16.0211 18.8578 14.8108 17.6464C14.2384 17.0788 13.7969 16.3964 13.5162 15.6456C13.2593 14.9401 13.1579 14.1888 13.2187 13.4416C13.2795 12.6945 13.5011 11.9687 13.8687 11.3124C14.2357 10.665 14.7244 10.0922 15.3086 9.62461C16.4861 8.68282 17.9851 8.17314 19.5573 8.16853C21.1238 8.16853 22.6237 8.67358 23.7993 9.61537C24.3863 10.0789 24.8754 10.651 25.2393 11.2995C25.6058 11.9431 25.8308 12.6596 25.8946 13.401C25.9626 14.1555 25.8612 14.9156 25.5974 15.6271C25.3148 16.377 24.8735 17.059 24.3028 17.628L24.3018 17.627Z" fill="black"/>
</svg>
