<svg width="24" height="24" viewBox="0 0 24 24" fill="none" xmlns="http://www.w3.org/2000/svg">
<g clip-path="url(#clip0_2142_14)">
<path d="M20.0156 0H3.98438C1.78387 0 0 1.82668 0 4.08V19.8816C0 22.1349 1.78387 23.9616 3.98438 23.9616H20.0156C22.2161 23.9616 24 22.1349 24 19.8816V4.08C24 1.82668 22.2161 0 20.0156 0Z" fill="black"/>
<path d="M9.6415 14.3359H5.92234L5.16559 16.7475C5.15589 16.7889 5.1332 16.8258 5.10099 16.8526C5.06879 16.8795 5.02887 16.8947 4.98738 16.8961L3.08875 16.896C2.98131 16.896 2.94372 16.8355 2.97606 16.7145L6.19609 7.25766L6.22825 7.1583L6.23894 7.12431L6.2605 7.05327C6.27119 7.0166 6.28188 6.97772 6.29266 6.93558C6.33484 6.71564 6.35641 6.49206 6.35706 6.2679C6.35489 6.25222 6.3563 6.23625 6.3612 6.22123C6.36609 6.20622 6.37433 6.19257 6.38526 6.18138C6.39619 6.17019 6.40952 6.16175 6.42418 6.15674C6.43884 6.15173 6.45445 6.15028 6.46975 6.1525H9.02969C9.10469 6.1525 9.14753 6.17996 9.1585 6.23497L12.8132 16.7311C12.8453 16.841 12.8132 16.8961 12.7166 16.896H10.6235C10.5876 16.9 10.5514 16.8906 10.5218 16.8693C10.4922 16.8481 10.4711 16.8166 10.4626 16.7806L9.6415 14.3359V14.3359ZM6.502 12.3026H9.04581L9.00953 12.18L8.95131 11.9858L8.86609 11.7078L8.7025 11.183L8.54669 10.6786L8.25681 9.73887C8.17672 9.47946 8.09984 9.21903 8.02619 8.95762L7.94388 8.66041L7.855 8.33468L7.77381 8.03257H7.75769C7.67717 8.4283 7.57907 8.82007 7.46369 9.20665L7.35494 9.56406L7.09338 10.4281L6.96081 10.8682C6.93681 10.9477 6.913 11.0263 6.88909 11.104L6.81784 11.3342L6.74697 11.559L6.67647 11.7783L6.60634 11.9921C6.57147 12.0977 6.53659 12.2011 6.502 12.3026V12.3026ZM18.7381 13.3973H15.5664C15.6053 13.7187 15.7095 14.0281 15.8723 14.3056C16.0523 14.5804 16.307 14.7953 16.6048 14.9238C17.0084 15.1027 17.445 15.1903 17.8848 15.1807C18.2336 15.1739 18.5812 15.1348 18.9232 15.064C19.2291 15.0217 19.5289 14.9417 19.816 14.8257C19.8696 14.7819 19.8966 14.8092 19.8966 14.9081V16.4743C19.8993 16.517 19.8909 16.5597 19.8723 16.598C19.854 16.6279 19.8292 16.6533 19.8 16.6722C19.4815 16.8167 19.1463 16.9189 18.8025 16.9765C18.3354 17.0663 17.8608 17.1077 17.3856 17.1001C16.6473 17.1001 16.0248 16.9866 15.5184 16.7597L15.4697 16.7374C14.9828 16.5177 14.5528 16.1847 14.214 15.7647C13.8974 15.369 13.662 14.912 13.5216 14.4211C13.3827 13.9365 13.3123 13.4341 13.3125 12.929C13.311 12.3776 13.3952 11.8294 13.562 11.3051C13.7227 10.7937 13.9767 10.3181 14.3106 9.9038C14.64 9.49426 15.0519 9.16244 15.5181 8.93103C15.9903 8.69487 16.5485 8.61011 17.1925 8.61011C17.7266 8.59628 18.2571 8.70324 18.7462 8.92335C19.1575 9.10296 19.5195 9.38296 19.8007 9.73887C20.0645 10.0874 20.2661 10.4809 20.3964 10.9011C20.5233 11.3062 20.5884 11.7288 20.5896 12.1541C20.5896 12.3961 20.5816 12.6159 20.5655 12.8137L20.5512 12.983L20.5362 13.1437L20.5273 13.2251C20.5266 13.2308 20.5259 13.2366 20.5252 13.2423C20.521 13.2786 20.504 13.3121 20.4773 13.3364C20.4506 13.3608 20.4161 13.3742 20.3804 13.3742L20.3362 13.3752L20.2812 13.378L20.2383 13.3812L20.1382 13.3899L20.0503 13.3989C20.0264 13.4015 20.0015 13.4039 19.9758 13.4061L19.896 13.4125L19.8108 13.4183L19.7203 13.4231L19.6245 13.4272L19.5745 13.4289L19.4707 13.4318C19.3681 13.4344 19.2629 13.4279 19.155 13.4198L18.9913 13.4075C18.907 13.4012 18.8226 13.3978 18.7382 13.3973H18.7381ZM15.5664 11.8954H17.7588L17.9456 11.8942L18.0725 11.8923L18.1548 11.8904L18.247 11.8872C18.3296 11.8787 18.4093 11.8517 18.4804 11.808V11.7091C18.4772 11.5801 18.4556 11.4524 18.4161 11.3299C18.3293 11.0486 18.1546 10.8043 17.919 10.6345C17.6835 10.4647 17.3999 10.3788 17.1121 10.39C16.8411 10.3733 16.5712 10.4376 16.3353 10.5752C16.0995 10.7128 15.9078 10.9177 15.7837 11.165C15.6734 11.3949 15.6001 11.6416 15.5664 11.8955V11.8954Z" fill="white"/>
</g>
<defs>
<clipPath id="clip0_2142_14">
<rect width="24" height="24" fill="white"/>
</clipPath>
</defs>
</svg>
