<svg width="24" height="24" viewBox="0 0 24 24" fill="none" xmlns="http://www.w3.org/2000/svg">
<g clip-path="url(#clip0_2142_17)">
<path d="M10.15 8.42005C9.77462 8.2729 9.3729 8.20482 8.97 8.22005C8.60655 8.21246 8.24293 8.21913 7.88 8.24005V11.6L8.27 11.62H8.8C9.19 11.62 9.58 11.56 9.95 11.44C10.27 11.35 10.55 11.16 10.77 10.91C10.98 10.66 11.08 10.32 11.08 9.88005C11.1026 9.56904 11.0243 9.25904 10.8568 8.99604C10.6892 8.73304 10.4414 8.53106 10.15 8.42005ZM19.75 0.300049H4.25C3.12283 0.300049 2.04183 0.747815 1.2448 1.54485C0.447767 2.34187 0 3.42288 0 4.55005L0 19.4501C0 21.8001 1.9 23.7001 4.25 23.7001H19.75C22.1 23.7001 24 21.8001 24 19.4501V4.55005C24 2.20005 22.1 0.300049 19.75 0.300049ZM12.66 11.95C12.26 12.51 11.7 12.93 11.05 13.17C10.37 13.42 9.62 13.51 8.8 13.51L8.3 13.5L7.87 13.49V16.7001C7.87284 16.7166 7.87217 16.7335 7.86805 16.7498C7.86393 16.7661 7.85645 16.7813 7.84609 16.7945C7.83572 16.8077 7.8227 16.8185 7.80787 16.8264C7.79305 16.8342 7.77674 16.8389 7.76 16.84H5.82C5.74 16.84 5.7 16.8 5.7 16.71V6.42005C5.7 6.35005 5.73 6.31005 5.8 6.31005L6.36 6.30005L7.12 6.28005L7.99 6.26005L8.9 6.25005C9.72 6.25005 10.4 6.35005 10.96 6.56005C11.46 6.73005 11.92 7.01005 12.3 7.38005C12.62 7.70005 12.87 8.09005 13.03 8.52005C13.18 8.94005 13.26 9.37005 13.26 9.82005C13.26 10.68 13.06 11.39 12.66 11.95ZM19.48 8.80005V10.75C19.48 10.83 19.43 10.86 19.32 10.86C18.6602 10.8361 18.0036 10.9626 17.4 11.23C17.21 11.32 17.03 11.44 16.89 11.6V16.7001C16.89 16.8001 16.85 16.84 16.76 16.84H14.79C14.7716 16.8429 14.7528 16.842 14.7347 16.8375C14.7167 16.8329 14.6997 16.8248 14.6848 16.8137C14.6699 16.8025 14.6574 16.7885 14.648 16.7724C14.6386 16.7563 14.6324 16.7385 14.63 16.72V11.14L14.62 10.39L14.6 9.61005C14.6 9.38005 14.58 9.16005 14.56 8.93005C14.5566 8.90637 14.5618 8.88225 14.5746 8.86207C14.5875 8.84189 14.6071 8.82698 14.63 8.82005H16.41C16.51 8.82005 16.59 8.89005 16.61 8.98005C16.7004 9.27821 16.7442 9.58852 16.74 9.90005C17.04 9.55005 17.41 9.26005 17.82 9.04005C18.2848 8.78184 18.8083 8.64754 19.34 8.65005C19.41 8.64005 19.47 8.69005 19.48 8.76005V8.80005Z" fill="white"/>
</g>
<defs>
<clipPath id="clip0_2142_17">
<rect width="24" height="24" fill="white"/>
</clipPath>
</defs>
</svg>
