<svg width="17" height="24" viewBox="0 0 17 24" fill="none" xmlns="http://www.w3.org/2000/svg">
<g clip-path="url(#clip0_2039_674)">
<path d="M3.9988 0H7.98107V7.77797H3.99885C-1.25283 7.57748 -1.30587 0.210562 3.9988 0ZM3.9988 15.8886H7.98107V8.11064H3.99885C-1.30582 8.3212 -1.25278 15.6881 3.99885 15.8886H3.9988ZM12.3041 0H8.32173V7.77797H12.3041C17.6264 7.49981 17.5601 0.158766 12.3041 0ZM7.98107 20.1103V16.2213H3.99885C0.749153 16.2213 -1.30582 19.942 0.954257 22.6145C3.10907 25.2633 7.98112 23.9427 7.98112 20.1103H7.98107ZM16.2945 11.9996C16.2945 9.01088 12.9586 7.13283 10.3044 8.6272C7.65011 10.1216 7.65007 13.8777 10.3044 15.3721C12.9587 16.8665 16.2945 14.9884 16.2945 11.9996Z" fill="black"/>
</g>
<defs>
<clipPath id="clip0_2039_674">
<rect width="16.32" height="24" fill="white"/>
</clipPath>
</defs>
</svg>
