<svg width="36" height="36" viewBox="0 0 36 36" fill="none" xmlns="http://www.w3.org/2000/svg">
<g clip-path="url(#clip0_2086_57)">
<path d="M23.4002 18C23.4002 19.4321 22.8313 20.8057 21.8186 21.8183C20.8059 22.831 19.4324 23.4 18.0002 23.4C16.568 23.4 15.1945 22.831 14.1818 21.8183C13.1691 20.8057 12.6002 19.4321 12.6002 18C12.6002 17.6922 12.6326 17.3916 12.6884 17.1H10.8002V24.2946C10.8002 24.795 11.2052 25.2 11.7056 25.2H24.2966C24.5364 25.1995 24.7663 25.1039 24.9357 24.9341C25.1051 24.7644 25.2002 24.5344 25.2002 24.2946V17.1H23.312C23.3678 17.3916 23.4002 17.6922 23.4002 18ZM18.0002 21.6C18.4731 21.5999 18.9413 21.5066 19.3782 21.3255C19.815 21.1445 20.2119 20.8791 20.5462 20.5447C20.8805 20.2102 21.1456 19.8132 21.3265 19.3762C21.5073 18.9393 21.6003 18.471 21.6002 17.9982C21.6001 17.5253 21.5068 17.0571 21.3258 16.6202C21.1447 16.1834 20.8794 15.7865 20.5449 15.4522C20.2104 15.1179 19.8134 14.8528 19.3765 14.6719C18.9396 14.4911 18.4713 14.3981 17.9984 14.3982C17.0434 14.3984 16.1276 14.778 15.4525 15.4535C14.7773 16.129 14.3982 17.045 14.3984 18C14.3987 18.955 14.7783 19.8708 15.4537 20.5459C16.1292 21.2211 17.0452 21.6002 18.0002 21.6ZM22.3202 14.22H24.4784C24.6218 14.22 24.7593 14.1631 24.8609 14.0619C24.9624 13.9607 25.0197 13.8234 25.0202 13.68V11.5218C25.0202 11.3781 24.9631 11.2403 24.8615 11.1387C24.7599 11.0371 24.6221 10.98 24.4784 10.98H22.3202C22.1765 10.98 22.0387 11.0371 21.9371 11.1387C21.8355 11.2403 21.7784 11.3781 21.7784 11.5218V13.68C21.7802 13.977 22.0232 14.22 22.3202 14.22ZM18.0002 0.719971C13.4173 0.719971 9.02204 2.54054 5.78141 5.78117C2.54078 9.02179 0.720215 13.417 0.720215 18C0.720215 22.5829 2.54078 26.9781 5.78141 30.2188C9.02204 33.4594 13.4173 35.28 18.0002 35.28C20.2695 35.28 22.5165 34.833 24.613 33.9646C26.7095 33.0962 28.6144 31.8234 30.219 30.2188C31.8236 28.6142 33.0965 26.7092 33.9649 24.6127C34.8333 22.5162 35.2802 20.2692 35.2802 18C35.2802 15.7307 34.8333 13.4837 33.9649 11.3872C33.0965 9.29069 31.8236 7.38576 30.219 5.78117C28.6144 4.17657 26.7095 2.90373 24.613 2.03533C22.5165 1.16693 20.2695 0.719971 18.0002 0.719971ZM27.0002 25.0002C27.0002 26.1 26.1002 27 25.0004 27H11C9.90021 27 9.00021 26.1 9.00021 25.0002V10.9998C9.00021 9.89997 9.90021 8.99997 11 8.99997H25.0004C26.1002 8.99997 27.0002 9.89997 27.0002 10.9998V25.0002Z" fill="white"/>
</g>
<defs>
<clipPath id="clip0_2086_57">
<rect width="36" height="36" fill="white"/>
</clipPath>
</defs>
</svg>
