<svg width="36" height="36" viewBox="0 0 36 36" fill="none" xmlns="http://www.w3.org/2000/svg">
<g clip-path="url(#clip0_2086_53)">
<path d="M20.8856 17.6994L16.8428 15.813C16.49 15.6492 16.2002 15.8328 16.2002 16.2234V19.7766C16.2002 20.1672 16.49 20.3508 16.8428 20.187L20.8838 18.3006C21.2384 18.135 21.2384 17.865 20.8856 17.6994ZM18.0002 0.719971C8.45662 0.719971 0.720215 8.45637 0.720215 18C0.720215 27.5436 8.45662 35.28 18.0002 35.28C27.5438 35.28 35.2802 27.5436 35.2802 18C35.2802 8.45637 27.5438 0.719971 18.0002 0.719971ZM18.0002 25.02C9.15501 25.02 9.00021 24.2226 9.00021 18C9.00021 11.7774 9.15501 10.98 18.0002 10.98C26.8454 10.98 27.0002 11.7774 27.0002 18C27.0002 24.2226 26.8454 25.02 18.0002 25.02Z" fill="white"/>
</g>
<defs>
<clipPath id="clip0_2086_53">
<rect width="36" height="36" fill="white"/>
</clipPath>
</defs>
</svg>
